<svg width="26" height="25" viewBox="0 0 26 25" fill="none" xmlns="http://www.w3.org/2000/svg">
<path d="M13.1 16.1458C14.1215 16.1458 14.9847 15.7937 15.6896 15.0896C16.3937 14.384 16.7458 13.5208 16.7458 12.5C16.7458 11.4785 16.3937 10.6153 15.6896 9.91042C14.984 9.20625 14.1208 8.85417 13.1 8.85417C12.0784 8.85417 11.2153 9.20625 10.5104 9.91042C9.80623 10.616 9.45414 11.4792 9.45414 12.5C9.45414 13.5215 9.80623 14.3847 10.5104 15.0896C11.2159 15.7937 12.0791 16.1458 13.1 16.1458ZM13.1 13.5417C12.8048 13.5417 12.5576 13.4417 12.3583 13.2417C12.159 13.0417 12.059 12.7944 12.0583 12.5C12.0583 12.2049 12.1583 11.9576 12.3583 11.7583C12.5583 11.559 12.8055 11.459 13.1 11.4583C13.3951 11.4583 13.6427 11.5583 13.8427 11.7583C14.0427 11.9583 14.1423 12.2056 14.1416 12.5C14.1416 12.7951 14.0416 13.0427 13.8416 13.2427C13.6416 13.4427 13.3944 13.5424 13.1 13.5417ZM13.1031 21.875C11.8073 21.875 10.5885 21.6292 9.44685 21.1375C8.30588 20.6451 7.31317 19.9771 6.46873 19.1333C5.62428 18.2903 4.95588 17.2986 4.46352 16.1583C3.97116 15.0181 3.72498 13.7997 3.72498 12.5031C3.72498 11.2073 3.97081 9.98854 4.46248 8.84687C4.95484 7.7059 5.62289 6.71319 6.46664 5.86875C7.3097 5.02431 8.30136 4.3559 9.44164 3.86354C10.5819 3.37118 11.8003 3.125 13.0969 3.125C14.3927 3.125 15.6114 3.37083 16.7531 3.8625C17.8941 4.35486 18.8868 5.02292 19.7312 5.86667C20.5757 6.70972 21.2441 7.70139 21.7364 8.84167C22.2288 9.98194 22.475 11.2003 22.475 12.4969C22.475 13.7927 22.2291 15.0115 21.7375 16.1531C21.2451 17.2941 20.5771 18.2868 19.7333 19.1312C18.8903 19.9757 17.8986 20.6441 16.7583 21.1365C15.618 21.6288 14.3996 21.875 13.1031 21.875ZM13.1 20.8333C15.4264 20.8333 17.3968 20.026 19.0114 18.4115C20.626 16.7969 21.4333 14.8264 21.4333 12.5C21.4333 10.1736 20.626 8.20312 19.0114 6.58854C17.3968 4.97396 15.4264 4.16667 13.1 4.16667C10.7736 4.16667 8.8031 4.97396 7.18852 6.58854C5.57393 8.20312 4.76664 10.1736 4.76664 12.5C4.76664 14.8264 5.57393 16.7969 7.18852 18.4115C8.8031 20.026 10.7736 20.8333 13.1 20.8333Z" fill="white"/>
</svg>
