<svg width="40" height="40" viewBox="0 0 40 40" fill="none" xmlns="http://www.w3.org/2000/svg">
<path d="M33.3333 15.0001C33.7416 15.0001 34.1356 15.15 34.4406 15.4213C34.7457 15.6926 34.9406 16.0663 34.9883 16.4718L35 16.6668V25.0001C35 26.7105 34.3426 28.3555 33.1638 29.5948C31.985 30.8341 30.3749 31.5729 28.6667 31.6584L28.3333 31.6668H13.5117L13.4783 32.3584L13.4217 33.2234C13.3767 33.8001 12.835 34.1518 12.37 33.9068L11.86 33.6334L11.26 33.2951L10.93 33.1001L10.2133 32.6618C10.0856 32.5809 9.95835 32.4993 9.83167 32.4168L9.06 31.9001L8.71 31.6551L8.08167 31.2001L7.55667 30.8001C7.48248 30.7427 7.40859 30.6849 7.335 30.6268C6.94167 30.3134 6.96 29.6834 7.37333 29.3568L7.84 28.9951L8.40667 28.5751L9.07333 28.1051L9.83333 27.5968L10.6033 27.1118L11.2967 26.6968L11.905 26.3551L12.4167 26.0801C12.875 25.8418 13.3683 26.1401 13.4133 26.6801L13.455 27.2584L13.495 27.9501L13.5117 28.3334H28.3333C29.1743 28.3337 29.9843 28.0161 30.6009 27.4443C31.2175 26.8724 31.5953 26.0887 31.6583 25.2501L31.6667 25.0001V16.6668C31.6667 16.2247 31.8423 15.8008 32.1548 15.4882C32.4674 15.1757 32.8913 15.0001 33.3333 15.0001ZM27.63 6.09176L28.14 6.36676L28.74 6.70509L29.07 6.90009L29.7867 7.33843L30.1683 7.58343L30.94 8.10009L31.29 8.34509L31.9183 8.80009L32.4433 9.20009L32.665 9.37343C33.0583 9.68676 33.04 10.3168 32.6267 10.6434L32.16 11.0051L31.5933 11.4251L30.9267 11.8951L30.1667 12.4034L29.3967 12.8884L28.7033 13.3034L28.095 13.6451L27.5833 13.9201C27.125 14.1584 26.63 13.8601 26.5867 13.3201L26.545 12.7418L26.505 12.0501C26.4989 11.9223 26.4933 11.7946 26.4883 11.6668H11.6667C10.7826 11.6668 9.93476 12.0179 9.30964 12.6431C8.68452 13.2682 8.33333 14.116 8.33333 15.0001V23.3334C8.33333 23.7755 8.15774 24.1994 7.84518 24.5119C7.53262 24.8245 7.10869 25.0001 6.66667 25.0001C6.22464 25.0001 5.80072 24.8245 5.48816 24.5119C5.17559 24.1994 5 23.7755 5 23.3334V15.0001C5 13.232 5.70238 11.5363 6.95262 10.286C8.20286 9.03581 9.89856 8.33343 11.6667 8.33343H26.4883L26.5217 7.64176L26.5583 7.04176L26.5783 6.77676C26.6233 6.20009 27.165 5.84676 27.63 6.09176Z" fill="#EE10B0"/>
</svg>
