<svg width="45" height="46" viewBox="0 0 45 46" fill="none" xmlns="http://www.w3.org/2000/svg">
<path d="M31.875 4.73975H13.125C7.94733 4.73975 3.75 8.93708 3.75 14.1147V32.8647C3.75 38.0424 7.94733 42.2397 13.125 42.2397H31.875C37.0527 42.2397 41.25 38.0424 41.25 32.8647V14.1147C41.25 8.93708 37.0527 4.73975 31.875 4.73975Z" stroke="white" stroke-width="2" stroke-linecap="round" stroke-linejoin="round"/>
<path d="M32.8124 13.1772H32.8312M29.9999 22.3085C30.2313 23.869 29.9648 25.4627 29.2382 26.8629C28.5117 28.2631 27.3621 29.3986 25.953 30.1079C24.5439 30.8171 22.947 31.064 21.3895 30.8134C19.832 30.5627 18.3932 29.8274 17.2778 28.7119C16.1623 27.5964 15.4269 26.1576 15.1763 24.6001C14.9257 23.0427 15.1726 21.4458 15.8818 20.0367C16.591 18.6276 17.7265 17.478 19.1268 16.7514C20.527 16.0249 22.1207 15.7583 23.6812 15.9897C25.2729 16.2258 26.7465 16.9675 27.8844 18.1053C29.0222 19.2432 29.7639 20.7168 29.9999 22.3085Z" stroke="white" stroke-width="2" stroke-linecap="round" stroke-linejoin="round"/>
</svg>
