<svg width="25" height="25" viewBox="0 0 25 25" fill="none" xmlns="http://www.w3.org/2000/svg">
<path d="M2.0835 22.9167V4.16675C2.0835 3.59383 2.28766 3.10355 2.696 2.69591C3.10433 2.28828 3.59461 2.08411 4.16683 2.08341H15.6252C16.1981 2.08341 16.6887 2.28758 17.097 2.69591C17.5054 3.10425 17.7092 3.59453 17.7085 4.16675V4.60946C17.2918 4.80043 16.9099 5.0348 16.5627 5.31258C16.2154 5.59036 15.9029 5.90286 15.6252 6.25008V4.16675H4.16683V16.6667H15.6252V12.5001C15.9029 12.8473 16.2154 13.1598 16.5627 13.4376C16.9099 13.7154 17.2918 13.9497 17.7085 14.1407V16.6667C17.7085 17.2397 17.5047 17.7303 17.097 18.1386C16.6894 18.547 16.1988 18.7508 15.6252 18.7501H6.25016L2.0835 22.9167ZM6.25016 14.5834H10.4168V12.5001H6.25016V14.5834ZM19.7918 12.5001C18.9238 12.5001 18.1859 12.1963 17.5783 11.5886C16.9706 10.981 16.6668 10.2431 16.6668 9.37508C16.6668 8.50703 16.9706 7.76918 17.5783 7.16154C18.1859 6.5539 18.9238 6.25008 19.7918 6.25008C19.9828 6.25008 20.1651 6.26744 20.3387 6.30216C20.5123 6.33689 20.6772 6.38029 20.8335 6.43237V1.04175H25.0002V3.12508H22.9168V9.37508C22.9168 10.2431 22.613 10.981 22.0054 11.5886C21.3977 12.1963 20.6599 12.5001 19.7918 12.5001ZM6.25016 11.4584H13.5418V9.37508H6.25016V11.4584ZM6.25016 8.33341H13.5418V6.25008H6.25016V8.33341Z" fill="white"/>
</svg>
