<svg width="26" height="25" viewBox="0 0 26 25" fill="none" xmlns="http://www.w3.org/2000/svg">
<path d="M22.0979 14.725L21.9947 13.6886L21.9604 13.6917L21.927 13.6979L22.0979 14.725ZM22.0979 14.725L22.202 15.7615L22.2364 15.7583L22.2697 15.7531L22.0979 14.725ZM17.8895 20.4354L18.5489 19.6292L18.5406 19.6229L17.8895 20.4354ZM17.8895 20.4354L17.2302 21.2417L17.2385 21.249L17.8895 20.4354ZM8.31037 20.4354L7.651 19.6302L7.63433 19.6438L7.61871 19.6573L8.31037 20.4354ZM8.31037 20.4354L8.96975 21.2427L8.98641 21.2292L9.00204 21.2146L8.31037 20.4354ZM4.101 10.275V9.23334H4.04891L3.99787 9.23855L4.101 10.275ZM4.101 10.275V11.3167H4.15308L4.20516 11.3115L4.101 10.275ZM16.3614 3.39689C16.344 3.19655 16.3193 2.9968 16.2895 2.79793C16.2571 2.57911 16.1903 2.36678 16.0916 2.16876L14.2406 3.12501C14.2166 3.07814 14.2218 3.06147 14.2354 3.14376C14.251 3.23647 14.2645 3.36564 14.2885 3.60522L16.3614 3.39689ZM16.4604 4.38647C16.526 4.47189 16.5041 4.51043 16.4677 4.3073C16.4333 4.11355 16.4062 3.84168 16.3614 3.39689L14.2875 3.60418C14.3291 4.01459 14.3645 4.38334 14.4177 4.67709C14.4687 4.95834 14.5583 5.32814 14.8031 5.64897L16.4604 4.38647ZM16.4604 4.38647L14.8031 5.64897C15.026 5.94152 15.3224 6.16983 15.6622 6.31071C16.0019 6.45159 16.3729 6.50001 16.7375 6.45105L16.4604 4.38647ZM17.2291 3.75626C16.9957 3.95356 16.7556 4.1429 16.5093 4.32397C16.3395 4.44168 16.3531 4.40001 16.4604 4.38647L16.7375 6.45105C17.1375 6.39689 17.4625 6.19897 17.6979 6.03439C17.9427 5.86564 18.2291 5.63022 18.5479 5.36876L17.2291 3.75626ZM18.2875 3.07918C18.0779 3.14925 17.8807 3.2519 17.7031 3.38334C17.5572 3.48751 17.3937 3.62189 17.2291 3.75626L18.5479 5.36876C18.7343 5.21668 18.8354 5.13439 18.9125 5.08022C18.9802 5.03126 18.9708 5.04793 18.9218 5.06355L18.2875 3.07918ZM19.75 3.15209C19.2873 2.95162 18.7677 2.92571 18.2875 3.07918L18.9218 5.06355L19.75 3.15209ZM20.7354 3.93126C20.5952 3.78698 20.4503 3.64732 20.301 3.51251C20.1371 3.36411 19.9507 3.24248 19.7489 3.15209L18.9218 5.06355C18.8739 5.04272 18.8666 5.02605 18.9291 5.08126C19 5.14376 19.0927 5.23439 19.2625 5.40418L20.7354 3.93126ZM21.6666 4.86251L20.7354 3.93126L19.2625 5.40418L20.1937 6.33543L21.6666 4.86251ZM22.4458 5.84793C22.3554 5.6461 22.2338 5.45979 22.0854 5.29584C21.9503 5.14713 21.8106 5.00262 21.6666 4.86251L20.1937 6.33647C20.3635 6.50626 20.4541 6.59897 20.5166 6.6698C20.5718 6.7323 20.5552 6.72501 20.5343 6.67709L22.4458 5.84793ZM22.5187 7.31043C22.6722 6.83016 22.6463 6.31054 22.4458 5.84793L20.5343 6.67709L22.5187 7.31043ZM21.8416 8.36876C21.9712 8.21504 22.0956 8.05696 22.2145 7.8948C22.325 7.74064 22.4437 7.54897 22.5187 7.31043L20.5343 6.67709C20.55 6.62814 20.5656 6.61772 20.5177 6.68647C20.4635 6.76251 20.3822 6.86355 20.2291 7.05001L21.8416 8.36876ZM21.2114 9.13855C21.1979 9.24584 21.1562 9.25834 21.2739 9.08855C21.3854 8.92709 21.5583 8.71459 21.8416 8.36876L20.2291 7.05001C19.9687 7.36876 19.7322 7.65522 19.5625 7.90001C19.3989 8.13543 19.201 8.46043 19.1468 8.86043L21.2114 9.13855ZM21.2114 9.13855L19.1468 8.86043C19.0979 9.22496 19.1463 9.59596 19.2872 9.93571C19.428 10.2755 19.6564 10.5719 19.9489 10.7948L21.2114 9.13855ZM22.201 9.23751C21.8964 9.21202 21.5928 9.17623 21.2906 9.13022C21.0875 9.09376 21.126 9.07293 21.2114 9.13855L19.9489 10.7948C20.2697 11.0396 20.6385 11.1292 20.9218 11.1802C21.2145 11.2323 21.5833 11.2688 21.9937 11.3104L22.201 9.23751ZM23.4291 9.50626C23.2311 9.40763 23.0188 9.34083 22.8 9.30834C22.6011 9.27855 22.4013 9.25493 22.201 9.23751L21.9937 11.3104C22.1479 11.324 22.3018 11.3414 22.4552 11.3625C22.5385 11.3771 22.5208 11.3823 22.4739 11.3583L23.4291 9.50626ZM24.4114 10.5927C24.2263 10.1236 23.8773 9.73758 23.4291 9.50626L22.475 11.3604L24.4114 10.5927ZM24.5572 11.8406C24.5572 11.6281 24.5572 11.4167 24.5458 11.2375C24.535 11.0164 24.4892 10.7985 24.4104 10.5917L22.475 11.3604C22.4562 11.3115 22.4625 11.2948 22.4687 11.3781C22.475 11.4719 22.475 11.6021 22.475 11.8427L24.5572 11.8406ZM24.5572 13.1573V11.8406H22.4739V13.1573H24.5572ZM24.4114 14.4052C24.5031 14.1729 24.5333 13.95 24.5458 13.7594C24.5572 13.5813 24.5572 13.3698 24.5572 13.1573H22.4739C22.4739 13.3979 22.4739 13.5281 22.4677 13.6219C22.4614 13.7052 22.4552 13.6886 22.4739 13.6396L24.4114 14.4052ZM23.4291 15.4917C23.8773 15.2604 24.2263 14.8743 24.4114 14.4052L22.475 13.6406L23.4291 15.4917ZM22.201 15.7604C22.4135 15.7396 22.6229 15.7188 22.8 15.6896C22.9875 15.6583 23.2062 15.6063 23.4291 15.4917L22.475 13.6406C22.5208 13.6167 22.5385 13.6219 22.4562 13.6354C22.3029 13.6576 22.149 13.6753 21.9947 13.6886L22.201 15.7604ZM21.2125 15.8594C21.126 15.925 21.0875 15.9042 21.2906 15.8677C21.4843 15.8333 21.7562 15.8052 22.201 15.7604L21.9937 13.6875C21.5843 13.7292 21.2145 13.7646 20.9218 13.8177C20.6395 13.8688 20.2697 13.9583 19.9489 14.2031L21.2125 15.8594ZM21.2125 15.8594L19.9489 14.2031C19.6564 14.4261 19.428 14.7225 19.2872 15.0622C19.1463 15.402 19.0979 15.773 19.1468 16.1375L21.2125 15.8594ZM21.8416 16.6281C21.6444 16.395 21.455 16.1553 21.2739 15.9094C21.1562 15.7396 21.1989 15.7521 21.2125 15.8594L19.1468 16.1375C19.201 16.5375 19.3989 16.8625 19.5635 17.0979C19.7333 17.3427 19.9687 17.6292 20.2291 17.9479L21.8416 16.6281ZM22.5187 17.6865C22.4485 17.4773 22.3459 17.2804 22.2145 17.1031C22.1104 16.9563 21.976 16.7938 21.8416 16.6281L20.2291 17.9479C20.3812 18.1344 20.4635 18.2344 20.5177 18.3115C20.5666 18.3792 20.551 18.3708 20.5343 18.3219L22.5187 17.6865ZM22.4458 19.15C22.6465 18.6871 22.6724 18.167 22.5187 17.6865L20.5343 18.3219L22.4458 19.15ZM21.6666 20.1354C21.8177 19.9844 21.9666 19.8365 22.0854 19.7011C22.2104 19.5573 22.3458 19.3792 22.4458 19.149L20.5343 18.3208C20.5552 18.2729 20.5718 18.2667 20.5166 18.3292C20.4541 18.4 20.3635 18.4917 20.1937 18.6625L21.6666 20.1354ZM20.7354 21.0656L21.6666 20.1354L20.1937 18.6625L19.2625 19.5927L20.7354 21.0656ZM19.75 21.8458C19.9518 21.7551 20.1382 21.6332 20.302 21.4844C20.4364 21.3667 20.5854 21.2167 20.7354 21.0656L19.2625 19.5927C19.1544 19.7035 19.0433 19.8112 18.9291 19.9156C18.8666 19.9719 18.8739 19.9552 18.9218 19.9344L19.75 21.8458ZM18.2875 21.9188C18.7677 22.0722 19.2873 22.0463 19.75 21.8458L18.9218 19.9344L18.2875 21.9188ZM17.2291 21.2417C17.3937 21.3761 17.5562 21.5104 17.7031 21.6146C17.8572 21.724 18.0489 21.8427 18.2875 21.9188L18.9218 19.9344C18.9708 19.95 18.9802 19.9656 18.9114 19.9177C18.7875 19.825 18.6663 19.7288 18.5479 19.6292L17.2291 21.2417ZM16.4604 20.6125C16.3531 20.5969 16.3395 20.5552 16.5093 20.6729C16.6708 20.7854 16.8822 20.9573 17.2281 21.2406L18.5479 19.6292C18.2291 19.3677 17.9427 19.1323 17.6979 18.9625C17.4625 18.7979 17.1375 18.6011 16.7375 18.5469L16.4604 20.6125ZM16.4604 20.6125L16.7375 18.5469C16.3729 18.4979 16.0019 18.5463 15.6622 18.6872C15.3224 18.8281 15.026 19.0564 14.8031 19.349L16.4604 20.6125ZM16.3604 21.6011C16.4052 21.1563 16.4333 20.8833 16.4677 20.6906C16.5041 20.4875 16.525 20.525 16.4593 20.6115L14.8031 19.3479C14.5583 19.6688 14.4687 20.0386 14.4177 20.3208C14.3656 20.6146 14.3302 20.9833 14.2885 21.3938L16.3604 21.6011ZM16.0906 22.8292C16.2052 22.6063 16.2572 22.3875 16.2885 22.2C16.3197 22.0229 16.3385 21.8136 16.3604 21.6011L14.2885 21.3938C14.2746 21.5484 14.2565 21.7016 14.2343 21.8552C14.2208 21.9386 14.2156 21.9208 14.2395 21.874L16.0906 22.8292ZM15.0062 23.8115C15.4745 23.6259 15.8598 23.2769 16.0906 22.8292L14.2406 21.875L15.0062 23.8115ZM13.7562 23.9573C13.9697 23.9573 14.1812 23.9573 14.3604 23.9458C14.55 23.9333 14.7729 23.9052 15.0062 23.8115L14.2406 21.875C14.2895 21.8563 14.3062 21.8625 14.2229 21.8688C14.0681 21.8753 13.9132 21.8774 13.7583 21.875L13.7562 23.9573ZM12.4406 23.9573H13.7562L13.7572 21.874H12.4406V23.9573ZM11.1927 23.8115C11.425 23.9031 11.6479 23.9333 11.8385 23.9458C12.0166 23.9573 12.2281 23.9573 12.4406 23.9573V21.874C12.2 21.874 12.0697 21.874 11.976 21.8677C11.8927 21.8615 11.9093 21.8552 11.9583 21.874L11.1927 23.8115ZM10.1062 22.8292C10.3375 23.2773 10.7236 23.6263 11.1927 23.8115L11.9583 21.874L10.1062 22.8292ZM9.83746 21.6011C9.85829 21.8136 9.87912 22.0229 9.90829 22.2C9.93954 22.3875 9.99162 22.6063 10.1062 22.8292L11.9604 21.875C11.9843 21.9208 11.9791 21.9386 11.9656 21.8563C11.9434 21.703 11.9257 21.5491 11.9125 21.3948L9.83746 21.6011ZM9.7385 20.6115C9.67287 20.5261 9.69371 20.4865 9.73016 20.6906C9.76454 20.8833 9.79266 21.1563 9.83746 21.6011L11.9104 21.3938C11.8687 20.9833 11.8333 20.6146 11.7802 20.3208C11.7291 20.0396 11.6395 19.6698 11.3947 19.349L9.7385 20.6115ZM9.7385 20.6115L11.3947 19.349C11.1718 19.0564 10.8754 18.8281 10.5357 18.6872C10.1959 18.5463 9.82491 18.4979 9.46037 18.5469L9.7385 20.6115ZM8.96871 21.2417C9.31558 20.9583 9.52704 20.7854 9.6885 20.674C9.85829 20.5563 9.84579 20.5979 9.7385 20.6115L9.46037 18.5469C9.06037 18.6011 8.73537 18.799 8.49996 18.9636C8.25516 19.1323 7.96871 19.3677 7.64996 19.6292L8.96871 21.2417ZM7.91037 21.9188C8.11993 21.8487 8.31713 21.746 8.49475 21.6146C8.64058 21.5104 8.80412 21.3761 8.96871 21.2417L7.651 19.6302C7.53226 19.7299 7.41172 19.8261 7.28746 19.9188C7.21975 19.9677 7.22912 19.9521 7.27808 19.9354L7.91037 21.9188ZM6.44787 21.8458C6.91049 22.0463 7.43011 22.0722 7.91037 21.9188L7.276 19.9344L6.44787 21.8458ZM5.46141 21.0667C5.61246 21.2177 5.76141 21.3667 5.89683 21.4854C6.03954 21.6104 6.21766 21.7469 6.44891 21.8469L7.276 19.9344C7.32391 19.9552 7.33121 19.9719 7.26871 19.9167C7.1545 19.8123 7.04334 19.7046 6.93537 19.5938L5.46141 21.0667ZM4.53121 20.1354L5.46246 21.0667L6.93537 19.5938L6.00412 18.6625L4.53121 20.1354ZM3.75204 19.15C3.851 19.3792 3.98746 19.5583 4.11246 19.7021C4.23121 19.8365 4.38016 19.9854 4.53121 20.1354L6.00412 18.6625C5.8933 18.5545 5.78562 18.4434 5.68121 18.3292C5.626 18.2667 5.64266 18.274 5.6635 18.3219L3.75204 19.15ZM3.67912 17.6875C3.52566 18.1678 3.55157 18.6874 3.75204 19.15L5.6635 18.3219L3.67912 17.6875ZM4.35621 16.6292C4.22658 16.7829 4.1022 16.941 3.98329 17.1031C3.85185 17.2807 3.7492 17.478 3.67912 17.6875L5.6635 18.3219C5.64683 18.3708 5.63225 18.3802 5.68016 18.3115C5.73433 18.2354 5.81558 18.1344 5.96871 17.9479L4.35621 16.6292ZM4.98537 15.8594C4.99996 15.7521 5.04162 15.7396 4.92391 15.9094C4.81246 16.0708 4.63954 16.2833 4.35621 16.6292L5.96871 17.9479C6.22912 17.6292 6.46558 17.3427 6.63537 17.0979C6.79891 16.8625 6.99683 16.5375 7.051 16.1375L4.98537 15.8594ZM4.98537 15.8594L7.051 16.1375C7.09996 15.773 7.05154 15.402 6.91066 15.0622C6.76978 14.7225 6.54146 14.4261 6.24891 14.2031L4.98537 15.8594ZM3.99579 15.7604C4.44162 15.8052 4.71454 15.8333 4.90725 15.8677C5.11037 15.9042 5.07183 15.925 4.98537 15.8594L6.24891 14.2031C5.92808 13.9583 5.55933 13.8688 5.276 13.8177C4.98329 13.7656 4.61454 13.7292 4.20308 13.6875L3.99579 15.7604ZM2.76871 15.4917C2.99162 15.6063 3.21037 15.6583 3.39787 15.6896C3.57496 15.7188 3.78433 15.7406 3.99683 15.7615L4.20308 13.6875C4.04879 13.6746 3.89595 13.6573 3.74266 13.6354C3.65933 13.6208 3.67704 13.6156 3.72391 13.6396L2.76871 15.4917ZM1.78746 14.4063C1.97259 14.8754 2.32161 15.2614 2.76975 15.4927L3.72496 13.6406L1.78746 14.4063ZM1.64162 13.1583C1.64162 13.3708 1.64162 13.5823 1.65308 13.7615C1.66558 13.9511 1.69475 14.174 1.7885 14.4073L3.72496 13.6396C3.74371 13.6886 3.73746 13.7052 3.73225 13.6219C3.72538 13.4675 3.72295 13.3129 3.72496 13.1583H1.64162ZM1.64162 11.8417V13.1583H3.72496V11.8417H1.64162ZM1.78746 10.5927C1.70899 10.7996 1.66364 11.0175 1.65308 11.2386C1.64058 11.4177 1.64162 11.6292 1.64162 11.8427H3.72496C3.72496 11.6011 3.72496 11.4708 3.73225 11.3771C3.73746 11.2938 3.74371 11.3104 3.72496 11.3594L1.78746 10.5927ZM2.76975 9.50834C2.32198 9.73915 1.97302 10.1244 1.78746 10.5927L3.72496 11.3594L2.76975 9.50834ZM3.99787 9.23751C3.78537 9.25939 3.576 9.27918 3.39891 9.31043C3.21141 9.34168 2.99266 9.39376 2.76975 9.50834L3.72496 11.3594C3.67808 11.3833 3.66141 11.3781 3.74371 11.3646C3.89698 11.3424 4.05086 11.3247 4.20516 11.3115L3.99787 9.23751ZM4.98746 9.13959C5.07391 9.07397 5.11246 9.0948 4.90829 9.13126C4.71558 9.16564 4.44266 9.19376 3.99787 9.23855L4.20516 11.3115C4.61454 11.2698 4.98433 11.2344 5.27808 11.1813C5.56037 11.1302 5.93016 11.0406 6.251 10.7958L4.98746 9.13959ZM4.98746 9.13959L6.251 10.7958C6.54336 10.5728 6.77147 10.2763 6.91216 9.93659C7.05286 9.59684 7.10112 9.22591 7.05204 8.86147L4.98746 9.13959ZM4.35725 8.3698C4.64058 8.71564 4.8135 8.92814 4.926 9.08959C5.04371 9.25939 5.00204 9.24689 4.98746 9.13959L7.05204 8.86147C6.99787 8.46147 6.801 8.13751 6.63641 7.90105C6.46662 7.65626 6.23016 7.3698 5.96975 7.05105L4.35725 8.3698ZM3.68016 7.31043C3.75621 7.55001 3.87391 7.74064 3.98433 7.89584C4.0885 8.04168 4.22287 8.20522 4.35725 8.3698L5.96975 7.05105C5.87008 6.93232 5.77386 6.81179 5.68121 6.68751C5.63225 6.6198 5.64891 6.62814 5.66454 6.67709L3.68016 7.31043ZM3.75308 5.84897C3.55287 6.31128 3.52696 6.83048 3.68016 7.31043L5.66454 6.67709L3.75308 5.84897ZM4.53225 4.86251C4.38121 5.01355 4.23225 5.16147 4.1135 5.29689C3.96509 5.46083 3.84346 5.64715 3.75308 5.84897L5.66454 6.67709C5.64371 6.72501 5.62704 6.7323 5.68225 6.66876C5.74475 6.59793 5.83537 6.50626 6.00516 6.33543L4.53225 4.86251ZM5.4635 3.9323L4.53225 4.86251L6.00516 6.33543L6.93746 5.40522L5.4635 3.9323ZM6.44891 3.15209C6.24702 3.24279 6.0607 3.36478 5.89683 3.51355C5.74812 3.64865 5.60361 3.7883 5.4635 3.9323L6.93746 5.40522C7.10725 5.23439 7.19891 5.14376 7.26975 5.0823C7.33225 5.02605 7.32496 5.04272 7.27704 5.06355L6.44891 3.15209ZM7.91141 3.07918C7.43115 2.92571 6.91153 2.95162 6.44891 3.15209L7.27704 5.06355L7.91141 3.07918ZM8.96871 3.75626C8.80412 3.62189 8.64266 3.48855 8.49579 3.38439C8.31824 3.25258 8.12103 3.14958 7.91141 3.07918L7.27704 5.06355C7.22808 5.04793 7.21871 5.0323 7.28746 5.08022C7.3635 5.13543 7.46454 5.21668 7.651 5.3698L8.96871 3.75626ZM9.73954 4.38647C9.84683 4.40105 9.85933 4.44272 9.68954 4.32501C9.44363 4.14392 9.20391 3.95458 8.97079 3.7573L7.651 5.3698C7.96975 5.63022 8.25516 5.86564 8.49996 6.03647C8.73537 6.20001 9.06037 6.39689 9.46037 6.45105L9.73954 4.38647ZM9.73954 4.38647L9.46141 6.45105C9.82595 6.50001 10.1969 6.45159 10.5367 6.31071C10.8765 6.16983 11.1729 5.94152 11.3958 5.64897L9.73954 4.38647ZM9.8385 3.39689C9.79371 3.84272 9.76558 4.11564 9.73121 4.30834C9.69475 4.51147 9.67391 4.47293 9.73954 4.38647L11.3958 5.64897C11.6406 5.32814 11.7302 4.95939 11.7812 4.67709C11.8333 4.38439 11.8708 4.01459 11.9114 3.60418L9.8385 3.39689ZM10.1072 2.1698C10.0086 2.36782 9.94182 2.58015 9.90933 2.79897C9.88016 2.97605 9.85933 3.18543 9.8385 3.39793L11.9114 3.60418C11.925 3.44996 11.9424 3.29713 11.9635 3.14376C11.9781 3.06043 11.9833 3.07918 11.9593 3.12501L10.1072 2.1698ZM11.1937 1.18751C10.7246 1.37265 10.3386 1.72166 10.1072 2.1698L11.9593 3.12501L11.1937 1.18751ZM12.4416 1.04168C12.2291 1.04168 12.0177 1.04168 11.8385 1.05314C11.6175 1.06369 11.3995 1.10904 11.1927 1.18751L11.9604 3.12501C11.9114 3.14376 11.8947 3.13751 11.9781 3.1323C12.0718 3.12605 12.202 3.12501 12.4427 3.12501L12.4416 1.04168ZM13.7583 1.04168H12.4416V3.12501H13.7583V1.04168ZM15.0062 1.18751C14.7993 1.10904 14.5814 1.06369 14.3604 1.05314C14.1833 1.04064 13.9718 1.04168 13.7593 1.04168V3.12501C14 3.12501 14.1302 3.12501 14.2239 3.1323C14.3072 3.13751 14.2895 3.14376 14.2406 3.12501L15.0062 1.18751ZM16.0927 2.1698C15.8613 1.72166 15.4753 1.37265 15.0062 1.18751L14.2406 3.12501L16.0927 2.1698ZM16.225 12.5C16.225 13.3288 15.8957 14.1237 15.3097 14.7097C14.7236 15.2958 13.9288 15.625 13.1 15.625V17.7083C14.4813 17.7083 15.8061 17.1596 16.7828 16.1829C17.7596 15.2061 18.3083 13.8813 18.3083 12.5H16.225ZM13.1 9.37501C13.9288 9.37501 14.7236 9.70425 15.3097 10.2903C15.8957 10.8764 16.225 11.6712 16.225 12.5H18.3083C18.3083 11.1187 17.7596 9.79391 16.7828 8.81716C15.8061 7.84041 14.4813 7.29168 13.1 7.29168V9.37501ZM9.97496 12.5C9.97496 11.6712 10.3042 10.8764 10.8902 10.2903C11.4763 9.70425 12.2712 9.37501 13.1 9.37501V7.29168C11.7186 7.29168 10.3939 7.84041 9.41711 8.81716C8.44036 9.79391 7.89162 11.1187 7.89162 12.5H9.97496ZM13.1 15.625C12.2712 15.625 11.4763 15.2958 10.8902 14.7097C10.3042 14.1237 9.97496 13.3288 9.97496 12.5H7.89162C7.89162 13.8813 8.44036 15.2061 9.41711 16.1829C10.3939 17.1596 11.7186 17.7083 13.1 17.7083V15.625Z" fill="white"/>
</svg>
