<svg width="45" height="46" viewBox="0 0 45 46" fill="none" xmlns="http://www.w3.org/2000/svg">
<path d="M12.8572 31.2041C10.562 33.0069 7.9276 34.3295 5.11077 35.0934C4.80051 35.206 4.53244 35.4114 4.343 35.6817C4.15356 35.952 4.05194 36.274 4.05194 36.6041C4.05194 36.9341 4.15356 37.2562 4.343 37.5265C4.53244 37.7968 4.80051 38.0022 5.11077 38.1148C27.3536 47.2434 41.4965 33.1327 39.3429 17.4791L42.9429 10.0219H38.7643C33.5572 3.62551 19.7358 3.94694 22.0179 17.5755C22.0179 17.5755 14.6251 18.8934 5.17505 9.60409C4.95645 9.38827 4.68059 9.23962 4.38012 9.17574C4.07965 9.11187 3.76717 9.13544 3.47968 9.24367C3.19219 9.3519 2.94175 9.54025 2.758 9.78642C2.57426 10.0326 2.46491 10.3263 2.44291 10.6327C1.44369 14.74 1.94374 19.0692 3.85302 22.8406C5.7623 26.612 8.95535 29.5779 12.8572 31.2041Z" stroke="white" stroke-linecap="round" stroke-linejoin="round"/>
</svg>
