<svg width="22" height="17" viewBox="0 0 22 17" fill="none" xmlns="http://www.w3.org/2000/svg">
<path d="M0.724976 1.25C0.724976 1.0428 0.807286 0.844086 0.953799 0.697573C1.10031 0.55106 1.29903 0.46875 1.50623 0.46875H18.6937C18.9009 0.46875 19.0996 0.55106 19.2462 0.697573C19.3927 0.844086 19.475 1.0428 19.475 1.25C19.475 1.4572 19.3927 1.65591 19.2462 1.80243C19.0996 1.94894 18.9009 2.03125 18.6937 2.03125H1.50623C1.29903 2.03125 1.10031 1.94894 0.953799 1.80243C0.807286 1.65591 0.724976 1.4572 0.724976 1.25ZM1.50623 8.28125H13.225C13.4322 8.28125 13.6309 8.19894 13.7774 8.05243C13.9239 7.90591 14.0062 7.7072 14.0062 7.5C14.0062 7.2928 13.9239 7.09409 13.7774 6.94757C13.6309 6.80106 13.4322 6.71875 13.225 6.71875H1.50623C1.29903 6.71875 1.10031 6.80106 0.953799 6.94757C0.807286 7.09409 0.724976 7.2928 0.724976 7.5C0.724976 7.7072 0.807286 7.90591 0.953799 8.05243C1.10031 8.19894 1.29903 8.28125 1.50623 8.28125ZM8.53748 12.9688H1.50623C1.29903 12.9688 1.10031 13.0511 0.953799 13.1976C0.807286 13.3441 0.724976 13.5428 0.724976 13.75C0.724976 13.9572 0.807286 14.1559 0.953799 14.3024C1.10031 14.4489 1.29903 14.5312 1.50623 14.5312H8.53748C8.74468 14.5312 8.94339 14.4489 9.0899 14.3024C9.23642 14.1559 9.31873 13.9572 9.31873 13.75C9.31873 13.5428 9.23642 13.3441 9.0899 13.1976C8.94339 13.0511 8.74468 12.9688 8.53748 12.9688ZM21.7855 7.33398C21.756 7.43264 21.7073 7.52449 21.6422 7.60426C21.5771 7.68402 21.4968 7.75013 21.4061 7.79877C21.3153 7.84742 21.2159 7.87764 21.1134 7.88771C21.0109 7.89777 20.9074 7.88748 20.809 7.85742L17.9125 6.9873V13.75C17.9136 14.4393 17.6871 15.1097 17.2682 15.6572C16.8492 16.2046 16.2613 16.5984 15.5956 16.7775C14.93 16.9566 14.2238 16.9109 13.5868 16.6475C12.9497 16.3841 12.4175 15.9178 12.0726 15.321C11.7277 14.7241 11.5895 14.0301 11.6795 13.3466C11.7694 12.6632 12.0825 12.0286 12.57 11.5413C13.0576 11.054 13.6924 10.7413 14.3759 10.6517C15.0594 10.5621 15.7533 10.7007 16.35 11.0459V5.9375C16.35 5.81572 16.3785 5.69563 16.4332 5.58682C16.4879 5.47801 16.5673 5.3835 16.665 5.31083C16.7627 5.23815 16.8761 5.18933 16.996 5.16826C17.116 5.14718 17.2392 5.15444 17.3558 5.18945L21.2621 6.36133C21.4604 6.42095 21.627 6.5569 21.7252 6.73929C21.8233 6.92168 21.845 7.13559 21.7855 7.33398ZM16.35 13.75C16.35 13.441 16.2583 13.1389 16.0866 12.8819C15.915 12.625 15.6709 12.4247 15.3854 12.3064C15.0999 12.1882 14.7857 12.1572 14.4826 12.2175C14.1796 12.2778 13.9011 12.4266 13.6826 12.6451C13.4641 12.8637 13.3153 13.1421 13.255 13.4452C13.1947 13.7483 13.2257 14.0624 13.3439 14.3479C13.4622 14.6335 13.6624 14.8775 13.9194 15.0492C14.1763 15.2209 14.4784 15.3125 14.7875 15.3125C15.2019 15.3125 15.5993 15.1479 15.8923 14.8549C16.1854 14.5618 16.35 14.1644 16.35 13.75Z" fill="white"/>
</svg>
