<svg width="27" height="26" viewBox="0 0 27 26" fill="none" xmlns="http://www.w3.org/2000/svg">
<path fill-rule="evenodd" clip-rule="evenodd" d="M16.9781 17.5254C15.0125 19.0959 12.5202 19.8542 10.013 19.6445C7.50575 19.4347 5.17401 18.273 3.49663 16.3977C1.81925 14.5225 0.923579 12.0762 0.993558 9.56117C1.06354 7.04618 2.09386 4.65344 3.87292 2.87438C5.65197 1.09533 8.04471 0.065003 10.5597 -0.00497676C13.0747 -0.0749565 15.521 0.820719 17.3963 2.4981C19.2715 4.17547 20.4333 6.50721 20.643 9.01442C20.8527 11.5216 20.0945 14.014 18.524 15.9796L26.0431 23.4973C26.1506 23.5974 26.2368 23.7182 26.2966 23.8523C26.3563 23.9865 26.3885 24.1313 26.3911 24.2782C26.3937 24.4251 26.3666 24.5709 26.3116 24.7071C26.2566 24.8433 26.1747 24.967 26.0709 25.0709C25.967 25.1748 25.8433 25.2566 25.7071 25.3116C25.5709 25.3666 25.4251 25.3937 25.2782 25.3911C25.1313 25.3885 24.9865 25.3563 24.8523 25.2966C24.7182 25.2368 24.5974 25.1506 24.4973 25.0431L16.9781 17.5254ZM5.41937 15.2475C4.34901 14.177 3.62001 12.8133 3.32449 11.3286C3.02898 9.84396 3.18021 8.30501 3.75908 6.90627C4.33794 5.50753 5.31847 4.31179 6.57672 3.47015C7.83498 2.62851 9.3145 2.17877 10.8283 2.17775C12.3421 2.17673 13.8222 2.62449 15.0816 3.46443C16.341 4.30437 17.3231 5.49879 17.9039 6.89675C18.4846 8.29471 18.6379 9.83346 18.3444 11.3185C18.0509 12.8036 17.3237 14.1683 16.2548 15.2402L16.2475 15.2475L16.2402 15.2533C14.8039 16.6863 12.8575 17.4906 10.8286 17.4895C8.79967 17.4884 6.85415 16.682 5.41937 15.2475Z" fill="#0E9EEF"/>
</svg>
