<svg width="31" height="39" viewBox="0 0 31 39" fill="none" xmlns="http://www.w3.org/2000/svg">
<path d="M5.72861 1.24067L8.39646 0.4371C9.61091 0.0707097 10.9172 0.158794 12.0714 0.68491C13.2257 1.21103 14.1491 2.13921 14.6691 3.29621L16.3293 6.98942C16.7767 7.98434 16.9013 9.09436 16.6857 10.1637C16.4701 11.2331 15.9251 12.2081 15.1272 12.9519L12.2263 15.6567C12.1904 15.6902 12.161 15.73 12.1395 15.7741C11.8357 16.3944 12.297 18.0514 13.7418 20.5553C15.3715 23.3775 16.6299 24.4928 17.2132 24.3209L21.0206 23.1557C22.0633 22.8373 23.1794 22.8531 24.2127 23.201C25.2459 23.5488 26.1444 24.2113 26.7822 25.0955L29.1415 28.3628C29.8822 29.3887 30.2253 30.6486 30.107 31.9084C29.9888 33.1682 29.4173 34.3423 28.4986 35.2125L26.4688 37.133C25.7629 37.8016 24.9058 38.2895 23.9705 38.5551C23.0353 38.8207 22.0496 38.856 21.0977 38.6582C15.4454 37.4817 10.3813 32.9303 5.862 25.1035C1.34111 17.2719 -0.0683589 10.6023 1.74771 5.1171C2.05171 4.19879 2.57229 3.36714 3.26546 2.69243C3.95863 2.01772 4.80242 1.51978 5.72861 1.24067ZM6.42611 3.54853C5.87037 3.71592 5.36309 4.01461 4.94713 4.41938C4.53118 4.82415 4.21876 5.3231 4.03628 5.87406C2.47093 10.6007 3.73896 16.605 7.94968 23.8982C12.1572 31.1866 16.7183 35.2848 21.5879 36.2973C22.1593 36.4161 22.751 36.3948 23.3124 36.2353C23.8738 36.0758 24.3883 35.7827 24.8118 35.3812L26.84 33.4623C27.3349 32.9939 27.6428 32.3617 27.7067 31.6833C27.7705 31.0049 27.5859 30.3264 27.1872 29.7739L24.8279 26.505C24.4845 26.029 24.0008 25.6723 23.4446 25.485C22.8884 25.2976 22.2875 25.289 21.7261 25.4603L17.9091 26.6287C15.7974 27.2571 13.8109 25.4973 11.6541 21.7591C9.82682 18.5962 9.19361 16.3109 9.97468 14.715C10.1257 14.4064 10.3315 14.1284 10.5822 13.8937L13.4831 11.1889C13.9129 10.7884 14.2065 10.2633 14.3226 9.68737C14.4388 9.11147 14.3717 8.51364 14.1307 7.97781L12.4706 4.28621C12.1905 3.66305 11.6933 3.16313 11.0716 2.87981C10.4499 2.59648 9.74638 2.54912 9.09235 2.74656L6.4245 3.55014L6.42611 3.54853Z" fill="white"/>
</svg>
