<svg width="43" height="43" viewBox="0 0 43 43" fill="none" xmlns="http://www.w3.org/2000/svg">
<path d="M0.607178 39.1684V3.81121C0.607178 2.95873 0.945825 2.14116 1.54862 1.53837C2.15142 0.935571 2.96898 0.596924 3.82146 0.596924H39.1786C40.0311 0.596924 40.8487 0.935571 41.4514 1.53837C42.0542 2.14116 42.3929 2.95873 42.3929 3.81121V39.1684C42.3929 40.0208 42.0542 40.8384 41.4514 41.4412C40.8487 42.044 40.0311 42.3826 39.1786 42.3826H29.5357V27.1469H31.8179C32.3379 27.1469 32.8366 26.9403 33.2043 26.5726C33.572 26.2049 33.7786 25.7062 33.7786 25.1862V22.7112C33.7786 22.1912 33.572 21.6925 33.2043 21.3248C32.8366 20.9571 32.3379 20.7505 31.8179 20.7505H29.6643V17.7291C29.6643 15.0291 30.8857 15.0291 32.1072 15.0291H33.6822C33.9409 15.0397 34.1987 14.9934 34.4376 14.8935C34.6764 14.7935 34.8904 14.6423 35.0643 14.4505C35.2511 14.2727 35.399 14.058 35.4986 13.8201C35.5982 13.5822 35.6473 13.3262 35.6429 13.0684V10.6898C35.6515 10.428 35.6084 10.1672 35.5161 9.9221C35.4238 9.67703 35.2841 9.45255 35.105 9.26149C34.9259 9.07044 34.7108 8.91657 34.4722 8.80866C34.2336 8.70076 33.9761 8.64095 33.7143 8.63264H30.0179C28.9393 8.59209 27.8648 8.78615 26.8686 9.20143C25.8723 9.6167 24.9781 10.2433 24.2477 11.0379C23.5173 11.8325 22.968 12.7762 22.6379 13.8038C22.3078 14.8314 22.2047 15.9184 22.3357 16.9898V20.7505H20.2786C20.0184 20.7462 19.76 20.7938 19.5184 20.8904C19.2768 20.987 19.0568 21.1308 18.8713 21.3133C18.6859 21.4958 18.5386 21.7134 18.438 21.9534C18.3375 22.1934 18.2857 22.451 18.2857 22.7112V25.1862C18.2857 25.4464 18.3375 25.704 18.438 25.944C18.5386 26.184 18.6859 26.4016 18.8713 26.5841C19.0568 26.7666 19.2768 26.9104 19.5184 27.007C19.76 27.1036 20.0184 27.1512 20.2786 27.1469H22.3357V42.3826H3.82146C2.96898 42.3826 2.15142 42.044 1.54862 41.4412C0.945825 40.8384 0.607178 40.0208 0.607178 39.1684Z" stroke="white" stroke-linecap="round" stroke-linejoin="round"/>
</svg>
