<svg width="25" height="19" viewBox="0 0 25 19" fill="none" xmlns="http://www.w3.org/2000/svg">
<path d="M0.833252 2.20833C0.833252 1.82156 0.986898 1.45063 1.26039 1.17714C1.53388 0.903646 1.90481 0.75 2.29159 0.75H22.7083C23.095 0.75 23.466 0.903646 23.7395 1.17714C24.0129 1.45063 24.1666 1.82156 24.1666 2.20833C24.1666 2.59511 24.0129 2.96604 23.7395 3.23953C23.466 3.51302 23.095 3.66667 22.7083 3.66667H2.29159C1.90481 3.66667 1.53388 3.51302 1.26039 3.23953C0.986898 2.96604 0.833252 2.59511 0.833252 2.20833ZM0.833252 9.5C0.833252 9.11323 0.986898 8.74229 1.26039 8.4688C1.53388 8.19531 1.90481 8.04167 2.29159 8.04167H22.7083C23.095 8.04167 23.466 8.19531 23.7395 8.4688C24.0129 8.74229 24.1666 9.11323 24.1666 9.5C24.1666 9.88677 24.0129 10.2577 23.7395 10.5312C23.466 10.8047 23.095 10.9583 22.7083 10.9583H2.29159C1.90481 10.9583 1.53388 10.8047 1.26039 10.5312C0.986898 10.2577 0.833252 9.88677 0.833252 9.5ZM0.833252 16.7917C0.833252 16.4049 0.986898 16.034 1.26039 15.7605C1.53388 15.487 1.90481 15.3333 2.29159 15.3333H22.7083C23.095 15.3333 23.466 15.487 23.7395 15.7605C24.0129 16.034 24.1666 16.4049 24.1666 16.7917C24.1666 17.1784 24.0129 17.5494 23.7395 17.8229C23.466 18.0964 23.095 18.25 22.7083 18.25H2.29159C1.90481 18.25 1.53388 18.0964 1.26039 17.8229C0.986898 17.5494 0.833252 17.1784 0.833252 16.7917Z" fill="#EE10B0"/>
</svg>
